<mxfile host="app.diagrams.net" modified="2023-05-24T15:19:20.432Z" agent="Mozilla/5.0 (Macintosh; Intel Mac OS X 10_15_7) AppleWebKit/537.36 (KHTML, like Gecko) Chrome/113.0.0.0 Safari/537.36" etag="SAyPCp_DWz-f6v3QbBtw" version="21.2.1" type="device" pages="4">
  <diagram id="YgB6XraWdOtSsOcZQZRv" name="RRQ">
    <mxGraphModel dx="1434" dy="925" grid="1" gridSize="10" guides="1" tooltips="1" connect="1" arrows="1" fold="1" page="1" pageScale="1" pageWidth="1169" pageHeight="827" math="0" shadow="0">
      <root>
        <mxCell id="0" />
        <mxCell id="1" parent="0" />
        <mxCell id="dNpubBIDQhL2eA7Wu7QT-1" value="" style="endArrow=none;html=1;rounded=0;startArrow=classicThin;startFill=1;" parent="1" edge="1">
          <mxGeometry width="50" height="50" relative="1" as="geometry">
            <mxPoint x="360" y="770" as="sourcePoint" />
            <mxPoint x="360" y="80" as="targetPoint" />
          </mxGeometry>
        </mxCell>
        <mxCell id="dNpubBIDQhL2eA7Wu7QT-2" value="" style="endArrow=none;html=1;rounded=0;startArrow=classic;startFill=1;" parent="1" edge="1">
          <mxGeometry width="50" height="50" relative="1" as="geometry">
            <mxPoint x="680" y="770" as="sourcePoint" />
            <mxPoint x="680" y="80" as="targetPoint" />
          </mxGeometry>
        </mxCell>
        <mxCell id="dNpubBIDQhL2eA7Wu7QT-3" value="T" style="text;html=1;align=center;verticalAlign=middle;resizable=0;points=[];autosize=1;strokeColor=none;fillColor=none;" parent="1" vertex="1">
          <mxGeometry x="350" y="778" width="20" height="20" as="geometry" />
        </mxCell>
        <mxCell id="dNpubBIDQhL2eA7Wu7QT-4" value="T" style="text;html=1;align=center;verticalAlign=middle;resizable=0;points=[];autosize=1;strokeColor=none;fillColor=none;" parent="1" vertex="1">
          <mxGeometry x="670" y="778" width="20" height="20" as="geometry" />
        </mxCell>
        <mxCell id="dNpubBIDQhL2eA7Wu7QT-5" value="C / R" style="text;html=1;align=center;verticalAlign=middle;resizable=0;points=[];autosize=1;strokeColor=none;fillColor=none;fontSize=18;" parent="1" vertex="1">
          <mxGeometry x="330" y="40" width="60" height="30" as="geometry" />
        </mxCell>
        <mxCell id="dNpubBIDQhL2eA7Wu7QT-6" value="C - Cliente&lt;br style=&quot;font-size: 16px;&quot;&gt;S - Servidor&lt;br style=&quot;font-size: 16px;&quot;&gt;E - Emissor&lt;br style=&quot;font-size: 16px;&quot;&gt;R - Receptor" style="text;html=1;align=left;verticalAlign=middle;resizable=0;points=[];autosize=1;strokeColor=none;fillColor=none;fontSize=16;" parent="1" vertex="1">
          <mxGeometry x="1050" y="15" width="110" height="80" as="geometry" />
        </mxCell>
        <mxCell id="dNpubBIDQhL2eA7Wu7QT-7" value="S / E" style="text;html=1;align=center;verticalAlign=middle;resizable=0;points=[];autosize=1;strokeColor=none;fillColor=none;fontSize=18;" parent="1" vertex="1">
          <mxGeometry x="655" y="40" width="50" height="30" as="geometry" />
        </mxCell>
        <mxCell id="dNpubBIDQhL2eA7Wu7QT-8" value="RRQ&amp;nbsp; -&amp;nbsp; 2500 bytes" style="text;html=1;align=center;verticalAlign=middle;resizable=0;points=[];autosize=1;strokeColor=none;fillColor=none;fontSize=16;" parent="1" vertex="1">
          <mxGeometry x="425" width="150" height="20" as="geometry" />
        </mxCell>
        <mxCell id="dNpubBIDQhL2eA7Wu7QT-9" value="" style="endArrow=classic;html=1;rounded=0;fontSize=16;" parent="1" edge="1">
          <mxGeometry width="50" height="50" relative="1" as="geometry">
            <mxPoint x="370" y="100" as="sourcePoint" />
            <mxPoint x="670" y="150" as="targetPoint" />
          </mxGeometry>
        </mxCell>
        <mxCell id="dNpubBIDQhL2eA7Wu7QT-10" value="" style="endArrow=none;html=1;rounded=0;fontSize=16;dashed=1;" parent="1" edge="1">
          <mxGeometry width="50" height="50" relative="1" as="geometry">
            <mxPoint x="370" y="97" as="sourcePoint" />
            <mxPoint x="680" y="97" as="targetPoint" />
          </mxGeometry>
        </mxCell>
        <mxCell id="dNpubBIDQhL2eA7Wu7QT-11" value="" style="endArrow=none;dashed=1;html=1;dashPattern=1 3;strokeWidth=2;rounded=0;fontSize=16;" parent="1" edge="1">
          <mxGeometry width="50" height="50" relative="1" as="geometry">
            <mxPoint x="690" y="150" as="sourcePoint" />
            <mxPoint x="690" y="100" as="targetPoint" />
          </mxGeometry>
        </mxCell>
        <mxCell id="dNpubBIDQhL2eA7Wu7QT-13" value="RRQ" style="text;html=1;align=center;verticalAlign=middle;resizable=0;points=[];autosize=1;strokeColor=none;fillColor=none;fontSize=16;rotation=5;" parent="1" vertex="1">
          <mxGeometry x="530" y="110" width="50" height="20" as="geometry" />
        </mxCell>
        <mxCell id="dNpubBIDQhL2eA7Wu7QT-14" value="" style="endArrow=classic;html=1;rounded=0;fontSize=16;" parent="1" edge="1">
          <mxGeometry width="50" height="50" relative="1" as="geometry">
            <mxPoint x="670" y="160" as="sourcePoint" />
            <mxPoint x="370" y="210" as="targetPoint" />
          </mxGeometry>
        </mxCell>
        <mxCell id="dNpubBIDQhL2eA7Wu7QT-15" value="DAT(1)" style="text;html=1;align=center;verticalAlign=middle;resizable=0;points=[];autosize=1;strokeColor=none;fillColor=none;fontSize=16;" parent="1" vertex="1">
          <mxGeometry x="465" y="160" width="70" height="20" as="geometry" />
        </mxCell>
        <mxCell id="dNpubBIDQhL2eA7Wu7QT-16" value="" style="endArrow=classic;html=1;rounded=0;fontSize=16;" parent="1" edge="1">
          <mxGeometry width="50" height="50" relative="1" as="geometry">
            <mxPoint x="370" y="220" as="sourcePoint" />
            <mxPoint x="670" y="260" as="targetPoint" />
          </mxGeometry>
        </mxCell>
        <mxCell id="dNpubBIDQhL2eA7Wu7QT-17" value="ACK(1)" style="text;html=1;align=center;verticalAlign=middle;resizable=0;points=[];autosize=1;strokeColor=none;fillColor=none;fontSize=16;" parent="1" vertex="1">
          <mxGeometry x="505" y="220" width="70" height="20" as="geometry" />
        </mxCell>
        <mxCell id="dNpubBIDQhL2eA7Wu7QT-18" value="512B" style="text;html=1;align=center;verticalAlign=middle;resizable=0;points=[];autosize=1;strokeColor=none;fillColor=none;fontSize=16;" parent="1" vertex="1">
          <mxGeometry x="280" y="200" width="50" height="20" as="geometry" />
        </mxCell>
        <mxCell id="dNpubBIDQhL2eA7Wu7QT-19" value="" style="endArrow=classic;html=1;rounded=0;fontSize=16;" parent="1" edge="1">
          <mxGeometry width="50" height="50" relative="1" as="geometry">
            <mxPoint x="670" y="280" as="sourcePoint" />
            <mxPoint x="370" y="330" as="targetPoint" />
          </mxGeometry>
        </mxCell>
        <mxCell id="dNpubBIDQhL2eA7Wu7QT-20" value="DAT(2)" style="text;html=1;align=center;verticalAlign=middle;resizable=0;points=[];autosize=1;strokeColor=none;fillColor=none;fontSize=16;" parent="1" vertex="1">
          <mxGeometry x="465" y="280" width="70" height="20" as="geometry" />
        </mxCell>
        <mxCell id="dNpubBIDQhL2eA7Wu7QT-21" value="1024B" style="text;html=1;align=center;verticalAlign=middle;resizable=0;points=[];autosize=1;strokeColor=none;fillColor=none;fontSize=16;" parent="1" vertex="1">
          <mxGeometry x="275" y="320" width="60" height="20" as="geometry" />
        </mxCell>
        <mxCell id="dNpubBIDQhL2eA7Wu7QT-22" value="" style="endArrow=classic;html=1;rounded=0;fontSize=16;" parent="1" edge="1">
          <mxGeometry width="50" height="50" relative="1" as="geometry">
            <mxPoint x="370" y="340" as="sourcePoint" />
            <mxPoint x="670" y="380" as="targetPoint" />
          </mxGeometry>
        </mxCell>
        <mxCell id="dNpubBIDQhL2eA7Wu7QT-23" value="ACK(2)" style="text;html=1;align=center;verticalAlign=middle;resizable=0;points=[];autosize=1;strokeColor=none;fillColor=none;fontSize=16;" parent="1" vertex="1">
          <mxGeometry x="505" y="340" width="70" height="20" as="geometry" />
        </mxCell>
        <mxCell id="dNpubBIDQhL2eA7Wu7QT-24" value="" style="endArrow=classic;html=1;rounded=0;fontSize=16;" parent="1" edge="1">
          <mxGeometry width="50" height="50" relative="1" as="geometry">
            <mxPoint x="780" y="340" as="sourcePoint" />
            <mxPoint x="1080" y="380" as="targetPoint" />
          </mxGeometry>
        </mxCell>
        <mxCell id="dNpubBIDQhL2eA7Wu7QT-25" value="ACK(1)" style="text;html=1;align=center;verticalAlign=middle;resizable=0;points=[];autosize=1;strokeColor=none;fillColor=none;fontSize=16;" parent="1" vertex="1">
          <mxGeometry x="915" y="340" width="70" height="20" as="geometry" />
        </mxCell>
        <mxCell id="dNpubBIDQhL2eA7Wu7QT-26" value="" style="endArrow=classic;html=1;rounded=0;fontSize=16;" parent="1" edge="1">
          <mxGeometry width="50" height="50" relative="1" as="geometry">
            <mxPoint x="670" y="389" as="sourcePoint" />
            <mxPoint x="370" y="439" as="targetPoint" />
          </mxGeometry>
        </mxCell>
        <mxCell id="dNpubBIDQhL2eA7Wu7QT-27" value="DAT(3)" style="text;html=1;align=center;verticalAlign=middle;resizable=0;points=[];autosize=1;strokeColor=none;fillColor=none;fontSize=16;" parent="1" vertex="1">
          <mxGeometry x="465" y="389" width="70" height="20" as="geometry" />
        </mxCell>
        <mxCell id="dNpubBIDQhL2eA7Wu7QT-28" value="" style="endArrow=classic;html=1;rounded=0;fontSize=16;" parent="1" edge="1">
          <mxGeometry width="50" height="50" relative="1" as="geometry">
            <mxPoint x="1100" y="470" as="sourcePoint" />
            <mxPoint x="800" y="520" as="targetPoint" />
          </mxGeometry>
        </mxCell>
        <mxCell id="dNpubBIDQhL2eA7Wu7QT-29" value="DAT(2)" style="text;html=1;align=center;verticalAlign=middle;resizable=0;points=[];autosize=1;strokeColor=none;fillColor=none;fontSize=16;" parent="1" vertex="1">
          <mxGeometry x="895" y="470" width="70" height="20" as="geometry" />
        </mxCell>
        <mxCell id="dNpubBIDQhL2eA7Wu7QT-30" value="1536B" style="text;html=1;align=center;verticalAlign=middle;resizable=0;points=[];autosize=1;strokeColor=none;fillColor=none;fontSize=16;" parent="1" vertex="1">
          <mxGeometry x="280" y="430" width="60" height="20" as="geometry" />
        </mxCell>
        <mxCell id="dNpubBIDQhL2eA7Wu7QT-31" value="" style="endArrow=classic;html=1;rounded=0;fontSize=16;" parent="1" edge="1">
          <mxGeometry width="50" height="50" relative="1" as="geometry">
            <mxPoint x="370" y="450" as="sourcePoint" />
            <mxPoint x="670" y="490" as="targetPoint" />
          </mxGeometry>
        </mxCell>
        <mxCell id="dNpubBIDQhL2eA7Wu7QT-32" value="ACK(3)" style="text;html=1;align=center;verticalAlign=middle;resizable=0;points=[];autosize=1;strokeColor=none;fillColor=none;fontSize=16;" parent="1" vertex="1">
          <mxGeometry x="505" y="450" width="70" height="20" as="geometry" />
        </mxCell>
        <mxCell id="dNpubBIDQhL2eA7Wu7QT-33" value="" style="endArrow=classic;html=1;rounded=0;fontSize=16;" parent="1" edge="1">
          <mxGeometry width="50" height="50" relative="1" as="geometry">
            <mxPoint x="670" y="500" as="sourcePoint" />
            <mxPoint x="370" y="550" as="targetPoint" />
          </mxGeometry>
        </mxCell>
        <mxCell id="dNpubBIDQhL2eA7Wu7QT-34" value="DAT(4)" style="text;html=1;align=center;verticalAlign=middle;resizable=0;points=[];autosize=1;strokeColor=none;fillColor=none;fontSize=16;" parent="1" vertex="1">
          <mxGeometry x="465" y="500" width="70" height="20" as="geometry" />
        </mxCell>
        <mxCell id="dNpubBIDQhL2eA7Wu7QT-36" value="2048B" style="text;html=1;align=center;verticalAlign=middle;resizable=0;points=[];autosize=1;strokeColor=none;fillColor=none;fontSize=16;" parent="1" vertex="1">
          <mxGeometry x="280" y="540" width="60" height="20" as="geometry" />
        </mxCell>
        <mxCell id="dNpubBIDQhL2eA7Wu7QT-37" value="" style="endArrow=classic;html=1;rounded=0;fontSize=16;" parent="1" edge="1">
          <mxGeometry width="50" height="50" relative="1" as="geometry">
            <mxPoint x="370" y="560" as="sourcePoint" />
            <mxPoint x="670" y="600" as="targetPoint" />
          </mxGeometry>
        </mxCell>
        <mxCell id="dNpubBIDQhL2eA7Wu7QT-38" value="ACK(4)" style="text;html=1;align=center;verticalAlign=middle;resizable=0;points=[];autosize=1;strokeColor=none;fillColor=none;fontSize=16;" parent="1" vertex="1">
          <mxGeometry x="505" y="560" width="70" height="20" as="geometry" />
        </mxCell>
        <mxCell id="dNpubBIDQhL2eA7Wu7QT-39" value="" style="endArrow=classic;html=1;rounded=0;fontSize=16;" parent="1" edge="1">
          <mxGeometry width="50" height="50" relative="1" as="geometry">
            <mxPoint x="670" y="620" as="sourcePoint" />
            <mxPoint x="370" y="670" as="targetPoint" />
          </mxGeometry>
        </mxCell>
        <mxCell id="dNpubBIDQhL2eA7Wu7QT-40" value="DAT(5, 452B)" style="text;html=1;align=center;verticalAlign=middle;resizable=0;points=[];autosize=1;strokeColor=none;fillColor=none;fontSize=16;" parent="1" vertex="1">
          <mxGeometry x="445" y="620" width="110" height="20" as="geometry" />
        </mxCell>
        <mxCell id="dNpubBIDQhL2eA7Wu7QT-42" value="2500B" style="text;html=1;align=center;verticalAlign=middle;resizable=0;points=[];autosize=1;strokeColor=none;fillColor=none;fontSize=16;" parent="1" vertex="1">
          <mxGeometry x="290" y="660" width="60" height="20" as="geometry" />
        </mxCell>
        <mxCell id="dNpubBIDQhL2eA7Wu7QT-43" value="" style="endArrow=classic;html=1;rounded=0;fontSize=16;" parent="1" edge="1">
          <mxGeometry width="50" height="50" relative="1" as="geometry">
            <mxPoint x="370" y="680" as="sourcePoint" />
            <mxPoint x="670" y="720" as="targetPoint" />
          </mxGeometry>
        </mxCell>
        <mxCell id="dNpubBIDQhL2eA7Wu7QT-44" value="ACK(5)" style="text;html=1;align=center;verticalAlign=middle;resizable=0;points=[];autosize=1;strokeColor=none;fillColor=none;fontSize=16;" parent="1" vertex="1">
          <mxGeometry x="505" y="680" width="70" height="20" as="geometry" />
        </mxCell>
      </root>
    </mxGraphModel>
  </diagram>
  <diagram id="hvEuCJ93GC18a9NEEStX" name="RRQ (erro DAT)">
    <mxGraphModel dx="1169" dy="922" grid="1" gridSize="10" guides="1" tooltips="1" connect="1" arrows="1" fold="1" page="1" pageScale="1" pageWidth="1169" pageHeight="827" math="0" shadow="0">
      <root>
        <mxCell id="0" />
        <mxCell id="1" parent="0" />
        <mxCell id="cgkKiZOeIZy3N6EwRu0r-1" value="" style="endArrow=none;html=1;rounded=0;startArrow=classicThin;startFill=1;" parent="1" edge="1">
          <mxGeometry width="50" height="50" relative="1" as="geometry">
            <mxPoint x="765" y="770" as="sourcePoint" />
            <mxPoint x="765" y="80" as="targetPoint" />
          </mxGeometry>
        </mxCell>
        <mxCell id="cgkKiZOeIZy3N6EwRu0r-2" value="" style="endArrow=none;html=1;rounded=0;startArrow=classic;startFill=1;" parent="1" edge="1">
          <mxGeometry width="50" height="50" relative="1" as="geometry">
            <mxPoint x="1085" y="770" as="sourcePoint" />
            <mxPoint x="1085" y="80" as="targetPoint" />
          </mxGeometry>
        </mxCell>
        <mxCell id="cgkKiZOeIZy3N6EwRu0r-3" value="T" style="text;html=1;align=center;verticalAlign=middle;resizable=0;points=[];autosize=1;strokeColor=none;fillColor=none;" parent="1" vertex="1">
          <mxGeometry x="755" y="778" width="20" height="20" as="geometry" />
        </mxCell>
        <mxCell id="cgkKiZOeIZy3N6EwRu0r-4" value="T" style="text;html=1;align=center;verticalAlign=middle;resizable=0;points=[];autosize=1;strokeColor=none;fillColor=none;" parent="1" vertex="1">
          <mxGeometry x="1075" y="778" width="20" height="20" as="geometry" />
        </mxCell>
        <mxCell id="cgkKiZOeIZy3N6EwRu0r-5" value="C / R" style="text;html=1;align=center;verticalAlign=middle;resizable=0;points=[];autosize=1;strokeColor=none;fillColor=none;fontSize=18;" parent="1" vertex="1">
          <mxGeometry x="735" y="40" width="60" height="30" as="geometry" />
        </mxCell>
        <mxCell id="cgkKiZOeIZy3N6EwRu0r-7" value="S / E" style="text;html=1;align=center;verticalAlign=middle;resizable=0;points=[];autosize=1;strokeColor=none;fillColor=none;fontSize=18;" parent="1" vertex="1">
          <mxGeometry x="1060" y="40" width="50" height="30" as="geometry" />
        </mxCell>
        <mxCell id="cgkKiZOeIZy3N6EwRu0r-8" value="RRQ&amp;nbsp; -&amp;nbsp; 2500 bytes" style="text;html=1;align=center;verticalAlign=middle;resizable=0;points=[];autosize=1;strokeColor=none;fillColor=none;fontSize=16;" parent="1" vertex="1">
          <mxGeometry x="425" width="150" height="20" as="geometry" />
        </mxCell>
        <mxCell id="cgkKiZOeIZy3N6EwRu0r-9" value="" style="endArrow=classic;html=1;rounded=0;fontSize=16;" parent="1" edge="1">
          <mxGeometry width="50" height="50" relative="1" as="geometry">
            <mxPoint x="775" y="100" as="sourcePoint" />
            <mxPoint x="1075" y="150" as="targetPoint" />
          </mxGeometry>
        </mxCell>
        <mxCell id="cgkKiZOeIZy3N6EwRu0r-10" value="" style="endArrow=none;html=1;rounded=0;fontSize=16;dashed=1;" parent="1" edge="1">
          <mxGeometry width="50" height="50" relative="1" as="geometry">
            <mxPoint x="775" y="97" as="sourcePoint" />
            <mxPoint x="1085" y="97" as="targetPoint" />
          </mxGeometry>
        </mxCell>
        <mxCell id="cgkKiZOeIZy3N6EwRu0r-11" value="" style="endArrow=none;dashed=1;html=1;dashPattern=1 3;strokeWidth=2;rounded=0;fontSize=16;" parent="1" edge="1">
          <mxGeometry width="50" height="50" relative="1" as="geometry">
            <mxPoint x="1095" y="150" as="sourcePoint" />
            <mxPoint x="1095" y="100" as="targetPoint" />
          </mxGeometry>
        </mxCell>
        <mxCell id="cgkKiZOeIZy3N6EwRu0r-12" value="RRQ" style="text;html=1;align=center;verticalAlign=middle;resizable=0;points=[];autosize=1;strokeColor=none;fillColor=none;fontSize=16;rotation=5;" parent="1" vertex="1">
          <mxGeometry x="935" y="110" width="50" height="20" as="geometry" />
        </mxCell>
        <mxCell id="cgkKiZOeIZy3N6EwRu0r-13" value="" style="endArrow=classic;html=1;rounded=0;fontSize=16;" parent="1" edge="1">
          <mxGeometry width="50" height="50" relative="1" as="geometry">
            <mxPoint x="1075" y="160" as="sourcePoint" />
            <mxPoint x="775" y="210" as="targetPoint" />
          </mxGeometry>
        </mxCell>
        <mxCell id="cgkKiZOeIZy3N6EwRu0r-14" value="DAT(1)" style="text;html=1;align=center;verticalAlign=middle;resizable=0;points=[];autosize=1;strokeColor=none;fillColor=none;fontSize=16;" parent="1" vertex="1">
          <mxGeometry x="870" y="160" width="70" height="20" as="geometry" />
        </mxCell>
        <mxCell id="cgkKiZOeIZy3N6EwRu0r-15" value="" style="endArrow=classic;html=1;rounded=0;fontSize=16;" parent="1" edge="1">
          <mxGeometry width="50" height="50" relative="1" as="geometry">
            <mxPoint x="775" y="220" as="sourcePoint" />
            <mxPoint x="1075" y="260" as="targetPoint" />
          </mxGeometry>
        </mxCell>
        <mxCell id="cgkKiZOeIZy3N6EwRu0r-16" value="ACK(1)" style="text;html=1;align=center;verticalAlign=middle;resizable=0;points=[];autosize=1;strokeColor=none;fillColor=none;fontSize=16;" parent="1" vertex="1">
          <mxGeometry x="910" y="220" width="70" height="20" as="geometry" />
        </mxCell>
        <mxCell id="cgkKiZOeIZy3N6EwRu0r-17" value="512B" style="text;html=1;align=center;verticalAlign=middle;resizable=0;points=[];autosize=1;strokeColor=none;fillColor=none;fontSize=16;" parent="1" vertex="1">
          <mxGeometry x="685" y="200" width="50" height="20" as="geometry" />
        </mxCell>
        <mxCell id="cgkKiZOeIZy3N6EwRu0r-18" value="" style="endArrow=classic;html=1;rounded=0;fontSize=16;" parent="1" edge="1">
          <mxGeometry width="50" height="50" relative="1" as="geometry">
            <mxPoint x="1075" y="280" as="sourcePoint" />
            <mxPoint x="775" y="330" as="targetPoint" />
          </mxGeometry>
        </mxCell>
        <mxCell id="cgkKiZOeIZy3N6EwRu0r-19" value="DAT(2)" style="text;html=1;align=center;verticalAlign=middle;resizable=0;points=[];autosize=1;strokeColor=none;fillColor=none;fontSize=16;" parent="1" vertex="1">
          <mxGeometry x="870" y="280" width="70" height="20" as="geometry" />
        </mxCell>
        <mxCell id="cgkKiZOeIZy3N6EwRu0r-20" value="1024B" style="text;html=1;align=center;verticalAlign=middle;resizable=0;points=[];autosize=1;strokeColor=none;fillColor=none;fontSize=16;" parent="1" vertex="1">
          <mxGeometry x="680" y="320" width="60" height="20" as="geometry" />
        </mxCell>
        <mxCell id="cgkKiZOeIZy3N6EwRu0r-21" value="" style="endArrow=classic;html=1;rounded=0;fontSize=16;" parent="1" edge="1">
          <mxGeometry width="50" height="50" relative="1" as="geometry">
            <mxPoint x="775" y="340" as="sourcePoint" />
            <mxPoint x="1075" y="380" as="targetPoint" />
          </mxGeometry>
        </mxCell>
        <mxCell id="cgkKiZOeIZy3N6EwRu0r-22" value="ACK(2)" style="text;html=1;align=center;verticalAlign=middle;resizable=0;points=[];autosize=1;strokeColor=none;fillColor=none;fontSize=16;" parent="1" vertex="1">
          <mxGeometry x="910" y="340" width="70" height="20" as="geometry" />
        </mxCell>
        <mxCell id="cgkKiZOeIZy3N6EwRu0r-25" value="" style="endArrow=classic;html=1;rounded=0;fontSize=16;" parent="1" edge="1">
          <mxGeometry width="50" height="50" relative="1" as="geometry">
            <mxPoint x="1075" y="389" as="sourcePoint" />
            <mxPoint x="915" y="420" as="targetPoint" />
          </mxGeometry>
        </mxCell>
        <mxCell id="cgkKiZOeIZy3N6EwRu0r-26" value="DAT(3)" style="text;html=1;align=center;verticalAlign=middle;resizable=0;points=[];autosize=1;strokeColor=none;fillColor=none;fontSize=16;" parent="1" vertex="1">
          <mxGeometry x="870" y="389" width="70" height="20" as="geometry" />
        </mxCell>
        <mxCell id="cgkKiZOeIZy3N6EwRu0r-42" value="X" style="text;html=1;align=center;verticalAlign=middle;resizable=0;points=[];autosize=1;strokeColor=none;fillColor=none;fontSize=16;" parent="1" vertex="1">
          <mxGeometry x="880" y="413" width="30" height="20" as="geometry" />
        </mxCell>
        <mxCell id="cgkKiZOeIZy3N6EwRu0r-44" value="" style="endArrow=none;dashed=1;html=1;dashPattern=1 3;strokeWidth=2;rounded=0;fontSize=16;" parent="1" edge="1">
          <mxGeometry width="50" height="50" relative="1" as="geometry">
            <mxPoint x="1095" y="499" as="sourcePoint" />
            <mxPoint x="1095" y="389" as="targetPoint" />
          </mxGeometry>
        </mxCell>
        <mxCell id="cgkKiZOeIZy3N6EwRu0r-47" value="" style="endArrow=classic;html=1;rounded=0;fontSize=16;" parent="1" edge="1">
          <mxGeometry width="50" height="50" relative="1" as="geometry">
            <mxPoint x="1075" y="490" as="sourcePoint" />
            <mxPoint x="785" y="530" as="targetPoint" />
          </mxGeometry>
        </mxCell>
        <mxCell id="cgkKiZOeIZy3N6EwRu0r-48" value="DAT(3)" style="text;html=1;align=center;verticalAlign=middle;resizable=0;points=[];autosize=1;strokeColor=none;fillColor=none;fontSize=16;" parent="1" vertex="1">
          <mxGeometry x="880" y="490" width="70" height="20" as="geometry" />
        </mxCell>
        <mxCell id="cgkKiZOeIZy3N6EwRu0r-49" value="" style="endArrow=classic;html=1;rounded=0;fontSize=16;" parent="1" edge="1">
          <mxGeometry width="50" height="50" relative="1" as="geometry">
            <mxPoint x="785" y="540" as="sourcePoint" />
            <mxPoint x="1085" y="580" as="targetPoint" />
          </mxGeometry>
        </mxCell>
        <mxCell id="cgkKiZOeIZy3N6EwRu0r-50" value="ACK(3)" style="text;html=1;align=center;verticalAlign=middle;resizable=0;points=[];autosize=1;strokeColor=none;fillColor=none;fontSize=16;" parent="1" vertex="1">
          <mxGeometry x="910" y="540" width="70" height="20" as="geometry" />
        </mxCell>
        <mxCell id="cgkKiZOeIZy3N6EwRu0r-80" value="" style="endArrow=none;html=1;rounded=0;startArrow=classicThin;startFill=1;" parent="1" edge="1">
          <mxGeometry width="50" height="50" relative="1" as="geometry">
            <mxPoint x="165" y="770" as="sourcePoint" />
            <mxPoint x="165" y="80" as="targetPoint" />
          </mxGeometry>
        </mxCell>
        <mxCell id="cgkKiZOeIZy3N6EwRu0r-81" value="" style="endArrow=none;html=1;rounded=0;startArrow=classic;startFill=1;" parent="1" edge="1">
          <mxGeometry width="50" height="50" relative="1" as="geometry">
            <mxPoint x="485" y="770" as="sourcePoint" />
            <mxPoint x="485" y="80" as="targetPoint" />
          </mxGeometry>
        </mxCell>
        <mxCell id="cgkKiZOeIZy3N6EwRu0r-82" value="T" style="text;html=1;align=center;verticalAlign=middle;resizable=0;points=[];autosize=1;strokeColor=none;fillColor=none;" parent="1" vertex="1">
          <mxGeometry x="155" y="778" width="20" height="20" as="geometry" />
        </mxCell>
        <mxCell id="cgkKiZOeIZy3N6EwRu0r-83" value="T" style="text;html=1;align=center;verticalAlign=middle;resizable=0;points=[];autosize=1;strokeColor=none;fillColor=none;" parent="1" vertex="1">
          <mxGeometry x="475" y="778" width="20" height="20" as="geometry" />
        </mxCell>
        <mxCell id="cgkKiZOeIZy3N6EwRu0r-84" value="C / R" style="text;html=1;align=center;verticalAlign=middle;resizable=0;points=[];autosize=1;strokeColor=none;fillColor=none;fontSize=18;" parent="1" vertex="1">
          <mxGeometry x="135" y="40" width="60" height="30" as="geometry" />
        </mxCell>
        <mxCell id="cgkKiZOeIZy3N6EwRu0r-85" value="S / E" style="text;html=1;align=center;verticalAlign=middle;resizable=0;points=[];autosize=1;strokeColor=none;fillColor=none;fontSize=18;" parent="1" vertex="1">
          <mxGeometry x="460" y="40" width="50" height="30" as="geometry" />
        </mxCell>
        <mxCell id="cgkKiZOeIZy3N6EwRu0r-86" value="" style="endArrow=classic;html=1;rounded=0;fontSize=16;" parent="1" edge="1">
          <mxGeometry width="50" height="50" relative="1" as="geometry">
            <mxPoint x="175" y="100" as="sourcePoint" />
            <mxPoint x="475" y="150" as="targetPoint" />
          </mxGeometry>
        </mxCell>
        <mxCell id="cgkKiZOeIZy3N6EwRu0r-87" value="" style="endArrow=none;html=1;rounded=0;fontSize=16;dashed=1;" parent="1" edge="1">
          <mxGeometry width="50" height="50" relative="1" as="geometry">
            <mxPoint x="175" y="97" as="sourcePoint" />
            <mxPoint x="485" y="97" as="targetPoint" />
          </mxGeometry>
        </mxCell>
        <mxCell id="cgkKiZOeIZy3N6EwRu0r-88" value="" style="endArrow=none;dashed=1;html=1;dashPattern=1 3;strokeWidth=2;rounded=0;fontSize=16;" parent="1" edge="1">
          <mxGeometry width="50" height="50" relative="1" as="geometry">
            <mxPoint x="495" y="150" as="sourcePoint" />
            <mxPoint x="495" y="100" as="targetPoint" />
          </mxGeometry>
        </mxCell>
        <mxCell id="cgkKiZOeIZy3N6EwRu0r-89" value="RRQ" style="text;html=1;align=center;verticalAlign=middle;resizable=0;points=[];autosize=1;strokeColor=none;fillColor=none;fontSize=16;rotation=5;" parent="1" vertex="1">
          <mxGeometry x="335" y="110" width="50" height="20" as="geometry" />
        </mxCell>
        <mxCell id="cgkKiZOeIZy3N6EwRu0r-90" value="" style="endArrow=classic;html=1;rounded=0;fontSize=16;" parent="1" edge="1">
          <mxGeometry width="50" height="50" relative="1" as="geometry">
            <mxPoint x="475" y="160" as="sourcePoint" />
            <mxPoint x="175" y="210" as="targetPoint" />
          </mxGeometry>
        </mxCell>
        <mxCell id="cgkKiZOeIZy3N6EwRu0r-91" value="DAT(1)" style="text;html=1;align=center;verticalAlign=middle;resizable=0;points=[];autosize=1;strokeColor=none;fillColor=none;fontSize=16;" parent="1" vertex="1">
          <mxGeometry x="270" y="160" width="70" height="20" as="geometry" />
        </mxCell>
        <mxCell id="cgkKiZOeIZy3N6EwRu0r-92" value="" style="endArrow=classic;html=1;rounded=0;fontSize=16;" parent="1" edge="1">
          <mxGeometry width="50" height="50" relative="1" as="geometry">
            <mxPoint x="175" y="220" as="sourcePoint" />
            <mxPoint x="475" y="260" as="targetPoint" />
          </mxGeometry>
        </mxCell>
        <mxCell id="cgkKiZOeIZy3N6EwRu0r-93" value="ACK(1)" style="text;html=1;align=center;verticalAlign=middle;resizable=0;points=[];autosize=1;strokeColor=none;fillColor=none;fontSize=16;" parent="1" vertex="1">
          <mxGeometry x="310" y="220" width="70" height="20" as="geometry" />
        </mxCell>
        <mxCell id="cgkKiZOeIZy3N6EwRu0r-94" value="512B" style="text;html=1;align=center;verticalAlign=middle;resizable=0;points=[];autosize=1;strokeColor=none;fillColor=none;fontSize=16;" parent="1" vertex="1">
          <mxGeometry x="85" y="200" width="50" height="20" as="geometry" />
        </mxCell>
        <mxCell id="cgkKiZOeIZy3N6EwRu0r-95" value="" style="endArrow=classic;html=1;rounded=0;fontSize=16;" parent="1" edge="1">
          <mxGeometry width="50" height="50" relative="1" as="geometry">
            <mxPoint x="475" y="280" as="sourcePoint" />
            <mxPoint x="175" y="330" as="targetPoint" />
          </mxGeometry>
        </mxCell>
        <mxCell id="cgkKiZOeIZy3N6EwRu0r-96" value="DAT(2)" style="text;html=1;align=center;verticalAlign=middle;resizable=0;points=[];autosize=1;strokeColor=none;fillColor=none;fontSize=16;" parent="1" vertex="1">
          <mxGeometry x="270" y="280" width="70" height="20" as="geometry" />
        </mxCell>
        <mxCell id="cgkKiZOeIZy3N6EwRu0r-97" value="1024B" style="text;html=1;align=center;verticalAlign=middle;resizable=0;points=[];autosize=1;strokeColor=none;fillColor=none;fontSize=16;" parent="1" vertex="1">
          <mxGeometry x="80" y="320" width="60" height="20" as="geometry" />
        </mxCell>
        <mxCell id="cgkKiZOeIZy3N6EwRu0r-98" value="" style="endArrow=classic;html=1;rounded=0;fontSize=16;" parent="1" edge="1">
          <mxGeometry width="50" height="50" relative="1" as="geometry">
            <mxPoint x="175" y="340" as="sourcePoint" />
            <mxPoint x="475" y="380" as="targetPoint" />
          </mxGeometry>
        </mxCell>
        <mxCell id="cgkKiZOeIZy3N6EwRu0r-99" value="ACK(2)" style="text;html=1;align=center;verticalAlign=middle;resizable=0;points=[];autosize=1;strokeColor=none;fillColor=none;fontSize=16;" parent="1" vertex="1">
          <mxGeometry x="310" y="340" width="70" height="20" as="geometry" />
        </mxCell>
        <mxCell id="cgkKiZOeIZy3N6EwRu0r-100" value="" style="endArrow=classic;html=1;rounded=0;fontSize=16;" parent="1" edge="1">
          <mxGeometry width="50" height="50" relative="1" as="geometry">
            <mxPoint x="475" y="389" as="sourcePoint" />
            <mxPoint x="315" y="420" as="targetPoint" />
          </mxGeometry>
        </mxCell>
        <mxCell id="cgkKiZOeIZy3N6EwRu0r-101" value="DAT(3)" style="text;html=1;align=center;verticalAlign=middle;resizable=0;points=[];autosize=1;strokeColor=none;fillColor=none;fontSize=16;" parent="1" vertex="1">
          <mxGeometry x="270" y="389" width="70" height="20" as="geometry" />
        </mxCell>
        <mxCell id="cgkKiZOeIZy3N6EwRu0r-102" value="X" style="text;html=1;align=center;verticalAlign=middle;resizable=0;points=[];autosize=1;strokeColor=none;fillColor=none;fontSize=16;" parent="1" vertex="1">
          <mxGeometry x="280" y="413" width="30" height="20" as="geometry" />
        </mxCell>
        <mxCell id="cgkKiZOeIZy3N6EwRu0r-103" value="" style="endArrow=none;dashed=1;html=1;dashPattern=1 3;strokeWidth=2;rounded=0;fontSize=16;" parent="1" edge="1">
          <mxGeometry width="50" height="50" relative="1" as="geometry">
            <mxPoint x="151" y="450" as="sourcePoint" />
            <mxPoint x="151" y="340" as="targetPoint" />
          </mxGeometry>
        </mxCell>
        <mxCell id="cgkKiZOeIZy3N6EwRu0r-104" value="" style="endArrow=none;dashed=1;html=1;dashPattern=1 3;strokeWidth=2;rounded=0;fontSize=16;" parent="1" edge="1">
          <mxGeometry width="50" height="50" relative="1" as="geometry">
            <mxPoint x="495" y="532" as="sourcePoint" />
            <mxPoint x="495" y="397" as="targetPoint" />
          </mxGeometry>
        </mxCell>
        <mxCell id="cgkKiZOeIZy3N6EwRu0r-105" value="" style="endArrow=classic;html=1;rounded=0;fontSize=16;" parent="1" edge="1">
          <mxGeometry width="50" height="50" relative="1" as="geometry">
            <mxPoint x="470" y="510" as="sourcePoint" />
            <mxPoint x="180" y="550" as="targetPoint" />
          </mxGeometry>
        </mxCell>
        <mxCell id="cgkKiZOeIZy3N6EwRu0r-106" value="DAT(3)" style="text;html=1;align=center;verticalAlign=middle;resizable=0;points=[];autosize=1;strokeColor=none;fillColor=none;fontSize=16;" parent="1" vertex="1">
          <mxGeometry x="275" y="510" width="70" height="20" as="geometry" />
        </mxCell>
        <mxCell id="cgkKiZOeIZy3N6EwRu0r-107" value="" style="endArrow=classic;html=1;rounded=0;fontSize=16;" parent="1" edge="1">
          <mxGeometry width="50" height="50" relative="1" as="geometry">
            <mxPoint x="165" y="450" as="sourcePoint" />
            <mxPoint x="465" y="490" as="targetPoint" />
          </mxGeometry>
        </mxCell>
        <mxCell id="cgkKiZOeIZy3N6EwRu0r-108" value="ACK(2)" style="text;html=1;align=center;verticalAlign=middle;resizable=0;points=[];autosize=1;strokeColor=none;fillColor=none;fontSize=16;" parent="1" vertex="1">
          <mxGeometry x="290" y="450" width="70" height="20" as="geometry" />
        </mxCell>
      </root>
    </mxGraphModel>
  </diagram>
  <diagram id="fneLlodjCTJVrSFPwkJU" name="WRQ">
    <mxGraphModel dx="1434" dy="925" grid="1" gridSize="10" guides="1" tooltips="1" connect="1" arrows="1" fold="1" page="1" pageScale="1" pageWidth="827" pageHeight="1169" math="0" shadow="0">
      <root>
        <mxCell id="0" />
        <mxCell id="1" parent="0" />
        <mxCell id="ZJhVPzHzz04Rej_fqiO_-1" value="WRQ&amp;nbsp; -&amp;nbsp; 2560 bytes" style="text;html=1;align=center;verticalAlign=middle;resizable=0;points=[];autosize=1;strokeColor=none;fillColor=none;fontSize=16;" parent="1" vertex="1">
          <mxGeometry x="425" y="1" width="160" height="20" as="geometry" />
        </mxCell>
        <mxCell id="U8hw2oZMTjpd9uHfugVz-1" value="" style="endArrow=none;html=1;rounded=0;startArrow=classicThin;startFill=1;" parent="1" edge="1">
          <mxGeometry width="50" height="50" relative="1" as="geometry">
            <mxPoint x="360" y="850" as="sourcePoint" />
            <mxPoint x="360" y="50" as="targetPoint" />
          </mxGeometry>
        </mxCell>
        <mxCell id="U8hw2oZMTjpd9uHfugVz-2" value="" style="endArrow=none;html=1;rounded=0;startArrow=classic;startFill=1;" parent="1" edge="1">
          <mxGeometry width="50" height="50" relative="1" as="geometry">
            <mxPoint x="680" y="850" as="sourcePoint" />
            <mxPoint x="680" y="50" as="targetPoint" />
          </mxGeometry>
        </mxCell>
        <mxCell id="U8hw2oZMTjpd9uHfugVz-3" value="T" style="text;html=1;align=center;verticalAlign=middle;resizable=0;points=[];autosize=1;strokeColor=none;fillColor=none;" parent="1" vertex="1">
          <mxGeometry x="350" y="860" width="20" height="20" as="geometry" />
        </mxCell>
        <mxCell id="U8hw2oZMTjpd9uHfugVz-4" value="T" style="text;html=1;align=center;verticalAlign=middle;resizable=0;points=[];autosize=1;strokeColor=none;fillColor=none;" parent="1" vertex="1">
          <mxGeometry x="670" y="860" width="20" height="20" as="geometry" />
        </mxCell>
        <mxCell id="U8hw2oZMTjpd9uHfugVz-5" value="C / E" style="text;html=1;align=center;verticalAlign=middle;resizable=0;points=[];autosize=1;strokeColor=none;fillColor=none;fontSize=18;" parent="1" vertex="1">
          <mxGeometry x="330" y="16" width="60" height="30" as="geometry" />
        </mxCell>
        <mxCell id="U8hw2oZMTjpd9uHfugVz-6" value="C - Cliente&lt;br style=&quot;font-size: 16px;&quot;&gt;S - Servidor&lt;br style=&quot;font-size: 16px;&quot;&gt;E - Emissor&lt;br style=&quot;font-size: 16px;&quot;&gt;R - Receptor" style="text;html=1;align=left;verticalAlign=middle;resizable=0;points=[];autosize=1;strokeColor=none;fillColor=none;fontSize=16;" parent="1" vertex="1">
          <mxGeometry x="1050" y="15" width="110" height="80" as="geometry" />
        </mxCell>
        <mxCell id="U8hw2oZMTjpd9uHfugVz-7" value="S / R" style="text;html=1;align=center;verticalAlign=middle;resizable=0;points=[];autosize=1;strokeColor=none;fillColor=none;fontSize=18;" parent="1" vertex="1">
          <mxGeometry x="650" y="16" width="60" height="30" as="geometry" />
        </mxCell>
        <mxCell id="U8hw2oZMTjpd9uHfugVz-8" value="" style="endArrow=classic;html=1;rounded=0;fontSize=16;" parent="1" edge="1">
          <mxGeometry width="50" height="50" relative="1" as="geometry">
            <mxPoint x="370" y="70" as="sourcePoint" />
            <mxPoint x="670" y="120" as="targetPoint" />
          </mxGeometry>
        </mxCell>
        <mxCell id="U8hw2oZMTjpd9uHfugVz-9" value="" style="endArrow=none;html=1;rounded=0;fontSize=16;dashed=1;" parent="1" edge="1">
          <mxGeometry width="50" height="50" relative="1" as="geometry">
            <mxPoint x="370" y="67" as="sourcePoint" />
            <mxPoint x="680" y="67" as="targetPoint" />
          </mxGeometry>
        </mxCell>
        <mxCell id="U8hw2oZMTjpd9uHfugVz-10" value="" style="endArrow=none;dashed=1;html=1;dashPattern=1 3;strokeWidth=2;rounded=0;fontSize=16;" parent="1" edge="1">
          <mxGeometry width="50" height="50" relative="1" as="geometry">
            <mxPoint x="690" y="120" as="sourcePoint" />
            <mxPoint x="690" y="70" as="targetPoint" />
          </mxGeometry>
        </mxCell>
        <mxCell id="U8hw2oZMTjpd9uHfugVz-11" value="WRQ" style="text;html=1;align=center;verticalAlign=middle;resizable=0;points=[];autosize=1;strokeColor=none;fillColor=none;fontSize=16;rotation=5;" parent="1" vertex="1">
          <mxGeometry x="530" y="80" width="50" height="20" as="geometry" />
        </mxCell>
        <mxCell id="U8hw2oZMTjpd9uHfugVz-12" value="" style="endArrow=classic;html=1;rounded=0;fontSize=16;" parent="1" edge="1">
          <mxGeometry width="50" height="50" relative="1" as="geometry">
            <mxPoint x="670" y="130" as="sourcePoint" />
            <mxPoint x="370" y="180" as="targetPoint" />
          </mxGeometry>
        </mxCell>
        <mxCell id="U8hw2oZMTjpd9uHfugVz-13" value="ACK(0)" style="text;html=1;align=center;verticalAlign=middle;resizable=0;points=[];autosize=1;strokeColor=none;fillColor=none;fontSize=16;" parent="1" vertex="1">
          <mxGeometry x="465" y="130" width="70" height="20" as="geometry" />
        </mxCell>
        <mxCell id="U8hw2oZMTjpd9uHfugVz-14" value="" style="endArrow=classic;html=1;rounded=0;fontSize=16;" parent="1" edge="1">
          <mxGeometry width="50" height="50" relative="1" as="geometry">
            <mxPoint x="370" y="190" as="sourcePoint" />
            <mxPoint x="670" y="230" as="targetPoint" />
          </mxGeometry>
        </mxCell>
        <mxCell id="U8hw2oZMTjpd9uHfugVz-15" value="DAT(1)" style="text;html=1;align=center;verticalAlign=middle;resizable=0;points=[];autosize=1;strokeColor=none;fillColor=none;fontSize=16;" parent="1" vertex="1">
          <mxGeometry x="505" y="190" width="70" height="20" as="geometry" />
        </mxCell>
        <mxCell id="U8hw2oZMTjpd9uHfugVz-16" value="512B" style="text;html=1;align=center;verticalAlign=middle;resizable=0;points=[];autosize=1;strokeColor=none;fillColor=none;fontSize=16;" parent="1" vertex="1">
          <mxGeometry x="695" y="220" width="50" height="20" as="geometry" />
        </mxCell>
        <mxCell id="U8hw2oZMTjpd9uHfugVz-17" value="" style="endArrow=classic;html=1;rounded=0;fontSize=16;" parent="1" edge="1">
          <mxGeometry width="50" height="50" relative="1" as="geometry">
            <mxPoint x="670" y="250" as="sourcePoint" />
            <mxPoint x="370" y="300" as="targetPoint" />
          </mxGeometry>
        </mxCell>
        <mxCell id="U8hw2oZMTjpd9uHfugVz-18" value="ACK(1)" style="text;html=1;align=center;verticalAlign=middle;resizable=0;points=[];autosize=1;strokeColor=none;fillColor=none;fontSize=16;" parent="1" vertex="1">
          <mxGeometry x="465" y="250" width="70" height="20" as="geometry" />
        </mxCell>
        <mxCell id="U8hw2oZMTjpd9uHfugVz-19" value="1024B" style="text;html=1;align=center;verticalAlign=middle;resizable=0;points=[];autosize=1;strokeColor=none;fillColor=none;fontSize=16;" parent="1" vertex="1">
          <mxGeometry x="690" y="340" width="60" height="20" as="geometry" />
        </mxCell>
        <mxCell id="U8hw2oZMTjpd9uHfugVz-20" value="" style="endArrow=classic;html=1;rounded=0;fontSize=16;" parent="1" edge="1">
          <mxGeometry width="50" height="50" relative="1" as="geometry">
            <mxPoint x="370" y="310" as="sourcePoint" />
            <mxPoint x="670" y="350" as="targetPoint" />
          </mxGeometry>
        </mxCell>
        <mxCell id="U8hw2oZMTjpd9uHfugVz-21" value="DAT(2)" style="text;html=1;align=center;verticalAlign=middle;resizable=0;points=[];autosize=1;strokeColor=none;fillColor=none;fontSize=16;" parent="1" vertex="1">
          <mxGeometry x="505" y="310" width="70" height="20" as="geometry" />
        </mxCell>
        <mxCell id="U8hw2oZMTjpd9uHfugVz-22" value="" style="endArrow=classic;html=1;rounded=0;fontSize=16;" parent="1" edge="1">
          <mxGeometry width="50" height="50" relative="1" as="geometry">
            <mxPoint x="780" y="340" as="sourcePoint" />
            <mxPoint x="1080" y="380" as="targetPoint" />
          </mxGeometry>
        </mxCell>
        <mxCell id="U8hw2oZMTjpd9uHfugVz-23" value="ACK(1)" style="text;html=1;align=center;verticalAlign=middle;resizable=0;points=[];autosize=1;strokeColor=none;fillColor=none;fontSize=16;" parent="1" vertex="1">
          <mxGeometry x="915" y="340" width="70" height="20" as="geometry" />
        </mxCell>
        <mxCell id="U8hw2oZMTjpd9uHfugVz-24" value="" style="endArrow=classic;html=1;rounded=0;fontSize=16;" parent="1" edge="1">
          <mxGeometry width="50" height="50" relative="1" as="geometry">
            <mxPoint x="670" y="359" as="sourcePoint" />
            <mxPoint x="370" y="409" as="targetPoint" />
          </mxGeometry>
        </mxCell>
        <mxCell id="U8hw2oZMTjpd9uHfugVz-25" value="ACK(2)" style="text;html=1;align=center;verticalAlign=middle;resizable=0;points=[];autosize=1;strokeColor=none;fillColor=none;fontSize=16;" parent="1" vertex="1">
          <mxGeometry x="465" y="359" width="70" height="20" as="geometry" />
        </mxCell>
        <mxCell id="U8hw2oZMTjpd9uHfugVz-26" value="" style="endArrow=classic;html=1;rounded=0;fontSize=16;" parent="1" edge="1">
          <mxGeometry width="50" height="50" relative="1" as="geometry">
            <mxPoint x="1100" y="470" as="sourcePoint" />
            <mxPoint x="800" y="520" as="targetPoint" />
          </mxGeometry>
        </mxCell>
        <mxCell id="U8hw2oZMTjpd9uHfugVz-27" value="DAT(2)" style="text;html=1;align=center;verticalAlign=middle;resizable=0;points=[];autosize=1;strokeColor=none;fillColor=none;fontSize=16;" parent="1" vertex="1">
          <mxGeometry x="895" y="470" width="70" height="20" as="geometry" />
        </mxCell>
        <mxCell id="U8hw2oZMTjpd9uHfugVz-28" value="1536B" style="text;html=1;align=center;verticalAlign=middle;resizable=0;points=[];autosize=1;strokeColor=none;fillColor=none;fontSize=16;" parent="1" vertex="1">
          <mxGeometry x="695" y="450" width="60" height="20" as="geometry" />
        </mxCell>
        <mxCell id="U8hw2oZMTjpd9uHfugVz-29" value="" style="endArrow=classic;html=1;rounded=0;fontSize=16;" parent="1" edge="1">
          <mxGeometry width="50" height="50" relative="1" as="geometry">
            <mxPoint x="370" y="420" as="sourcePoint" />
            <mxPoint x="670" y="460" as="targetPoint" />
          </mxGeometry>
        </mxCell>
        <mxCell id="U8hw2oZMTjpd9uHfugVz-30" value="DAT(3)" style="text;html=1;align=center;verticalAlign=middle;resizable=0;points=[];autosize=1;strokeColor=none;fillColor=none;fontSize=16;" parent="1" vertex="1">
          <mxGeometry x="505" y="420" width="70" height="20" as="geometry" />
        </mxCell>
        <mxCell id="U8hw2oZMTjpd9uHfugVz-31" value="" style="endArrow=classic;html=1;rounded=0;fontSize=16;" parent="1" edge="1">
          <mxGeometry width="50" height="50" relative="1" as="geometry">
            <mxPoint x="670" y="470" as="sourcePoint" />
            <mxPoint x="370" y="520" as="targetPoint" />
          </mxGeometry>
        </mxCell>
        <mxCell id="U8hw2oZMTjpd9uHfugVz-32" value="ACK(3)" style="text;html=1;align=center;verticalAlign=middle;resizable=0;points=[];autosize=1;strokeColor=none;fillColor=none;fontSize=16;" parent="1" vertex="1">
          <mxGeometry x="469" y="470" width="70" height="20" as="geometry" />
        </mxCell>
        <mxCell id="U8hw2oZMTjpd9uHfugVz-33" value="2048B" style="text;html=1;align=center;verticalAlign=middle;resizable=0;points=[];autosize=1;strokeColor=none;fillColor=none;fontSize=16;" parent="1" vertex="1">
          <mxGeometry x="695" y="560" width="60" height="20" as="geometry" />
        </mxCell>
        <mxCell id="U8hw2oZMTjpd9uHfugVz-34" value="" style="endArrow=classic;html=1;rounded=0;fontSize=16;" parent="1" edge="1">
          <mxGeometry width="50" height="50" relative="1" as="geometry">
            <mxPoint x="370" y="530" as="sourcePoint" />
            <mxPoint x="670" y="570" as="targetPoint" />
          </mxGeometry>
        </mxCell>
        <mxCell id="U8hw2oZMTjpd9uHfugVz-35" value="DAT(4)" style="text;html=1;align=center;verticalAlign=middle;resizable=0;points=[];autosize=1;strokeColor=none;fillColor=none;fontSize=16;" parent="1" vertex="1">
          <mxGeometry x="505" y="530" width="70" height="20" as="geometry" />
        </mxCell>
        <mxCell id="U8hw2oZMTjpd9uHfugVz-36" value="" style="endArrow=classic;html=1;rounded=0;fontSize=16;" parent="1" edge="1">
          <mxGeometry width="50" height="50" relative="1" as="geometry">
            <mxPoint x="670" y="590" as="sourcePoint" />
            <mxPoint x="370" y="640" as="targetPoint" />
          </mxGeometry>
        </mxCell>
        <mxCell id="U8hw2oZMTjpd9uHfugVz-37" value="ACK(4)" style="text;html=1;align=center;verticalAlign=middle;resizable=0;points=[];autosize=1;strokeColor=none;fillColor=none;fontSize=16;" parent="1" vertex="1">
          <mxGeometry x="465" y="590" width="70" height="20" as="geometry" />
        </mxCell>
        <mxCell id="U8hw2oZMTjpd9uHfugVz-38" value="2560B" style="text;html=1;align=center;verticalAlign=middle;resizable=0;points=[];autosize=1;strokeColor=none;fillColor=none;fontSize=16;" parent="1" vertex="1">
          <mxGeometry x="695" y="670" width="60" height="20" as="geometry" />
        </mxCell>
        <mxCell id="U8hw2oZMTjpd9uHfugVz-39" value="" style="endArrow=classic;html=1;rounded=0;fontSize=16;" parent="1" edge="1">
          <mxGeometry width="50" height="50" relative="1" as="geometry">
            <mxPoint x="370" y="650" as="sourcePoint" />
            <mxPoint x="670" y="670" as="targetPoint" />
          </mxGeometry>
        </mxCell>
        <mxCell id="U8hw2oZMTjpd9uHfugVz-40" value="DAT(5)" style="text;html=1;align=center;verticalAlign=middle;resizable=0;points=[];autosize=1;strokeColor=none;fillColor=none;fontSize=16;" parent="1" vertex="1">
          <mxGeometry x="501" y="638" width="70" height="20" as="geometry" />
        </mxCell>
        <mxCell id="U8hw2oZMTjpd9uHfugVz-41" value="" style="endArrow=classic;html=1;rounded=0;fontSize=16;" parent="1" edge="1">
          <mxGeometry width="50" height="50" relative="1" as="geometry">
            <mxPoint x="670" y="680" as="sourcePoint" />
            <mxPoint x="370" y="730" as="targetPoint" />
          </mxGeometry>
        </mxCell>
        <mxCell id="U8hw2oZMTjpd9uHfugVz-42" value="ACK(5)" style="text;html=1;align=center;verticalAlign=middle;resizable=0;points=[];autosize=1;strokeColor=none;fillColor=none;fontSize=16;" parent="1" vertex="1">
          <mxGeometry x="465" y="680" width="70" height="20" as="geometry" />
        </mxCell>
        <mxCell id="U8hw2oZMTjpd9uHfugVz-43" value="" style="endArrow=classic;html=1;rounded=0;fontSize=16;" parent="1" edge="1">
          <mxGeometry width="50" height="50" relative="1" as="geometry">
            <mxPoint x="370" y="742" as="sourcePoint" />
            <mxPoint x="670" y="762" as="targetPoint" />
          </mxGeometry>
        </mxCell>
        <mxCell id="U8hw2oZMTjpd9uHfugVz-44" value="DAT(6, 0B)" style="text;html=1;align=center;verticalAlign=middle;resizable=0;points=[];autosize=1;strokeColor=none;fillColor=none;fontSize=16;" parent="1" vertex="1">
          <mxGeometry x="491" y="730" width="90" height="20" as="geometry" />
        </mxCell>
        <mxCell id="U8hw2oZMTjpd9uHfugVz-45" value="" style="endArrow=classic;html=1;rounded=0;fontSize=16;" parent="1" edge="1">
          <mxGeometry width="50" height="50" relative="1" as="geometry">
            <mxPoint x="680" y="773" as="sourcePoint" />
            <mxPoint x="370" y="830" as="targetPoint" />
          </mxGeometry>
        </mxCell>
        <mxCell id="U8hw2oZMTjpd9uHfugVz-46" value="ACK(6)" style="text;html=1;align=center;verticalAlign=middle;resizable=0;points=[];autosize=1;strokeColor=none;fillColor=none;fontSize=16;" parent="1" vertex="1">
          <mxGeometry x="470" y="770" width="70" height="20" as="geometry" />
        </mxCell>
      </root>
    </mxGraphModel>
  </diagram>
  <diagram id="ZbL6ZD0VSJe10kceStqX" name="WRQ (SAS)">
    <mxGraphModel dx="1358" dy="879" grid="1" gridSize="10" guides="1" tooltips="1" connect="1" arrows="1" fold="1" page="1" pageScale="1" pageWidth="1169" pageHeight="827" math="0" shadow="0">
      <root>
        <mxCell id="0" />
        <mxCell id="1" parent="0" />
        <mxCell id="z9AHaRD5B-sYxP1kEGOL-1" value="WRQ&amp;nbsp; -&amp;nbsp; 2560 bytes" style="text;html=1;align=center;verticalAlign=middle;resizable=0;points=[];autosize=1;strokeColor=none;fillColor=none;fontSize=16;" vertex="1" parent="1">
          <mxGeometry x="425" y="1" width="160" height="20" as="geometry" />
        </mxCell>
        <mxCell id="z9AHaRD5B-sYxP1kEGOL-2" value="" style="endArrow=none;html=1;rounded=0;startArrow=classicThin;startFill=1;" edge="1" parent="1">
          <mxGeometry width="50" height="50" relative="1" as="geometry">
            <mxPoint x="360" y="790" as="sourcePoint" />
            <mxPoint x="360" y="50" as="targetPoint" />
          </mxGeometry>
        </mxCell>
        <mxCell id="z9AHaRD5B-sYxP1kEGOL-3" value="" style="endArrow=none;html=1;rounded=0;startArrow=classic;startFill=1;" edge="1" parent="1">
          <mxGeometry width="50" height="50" relative="1" as="geometry">
            <mxPoint x="680" y="800" as="sourcePoint" />
            <mxPoint x="680" y="50" as="targetPoint" />
          </mxGeometry>
        </mxCell>
        <mxCell id="z9AHaRD5B-sYxP1kEGOL-4" value="T" style="text;html=1;align=center;verticalAlign=middle;resizable=0;points=[];autosize=1;strokeColor=none;fillColor=none;" vertex="1" parent="1">
          <mxGeometry x="350" y="803" width="20" height="20" as="geometry" />
        </mxCell>
        <mxCell id="z9AHaRD5B-sYxP1kEGOL-5" value="T" style="text;html=1;align=center;verticalAlign=middle;resizable=0;points=[];autosize=1;strokeColor=none;fillColor=none;" vertex="1" parent="1">
          <mxGeometry x="670" y="803" width="20" height="20" as="geometry" />
        </mxCell>
        <mxCell id="z9AHaRD5B-sYxP1kEGOL-6" value="C / E" style="text;html=1;align=center;verticalAlign=middle;resizable=0;points=[];autosize=1;strokeColor=none;fillColor=none;fontSize=18;" vertex="1" parent="1">
          <mxGeometry x="330" y="16" width="60" height="30" as="geometry" />
        </mxCell>
        <mxCell id="z9AHaRD5B-sYxP1kEGOL-7" value="C - Cliente&lt;br style=&quot;font-size: 16px;&quot;&gt;S - Servidor&lt;br style=&quot;font-size: 16px;&quot;&gt;E - Emissor&lt;br style=&quot;font-size: 16px;&quot;&gt;R - Receptor" style="text;html=1;align=left;verticalAlign=middle;resizable=0;points=[];autosize=1;strokeColor=none;fillColor=none;fontSize=16;" vertex="1" parent="1">
          <mxGeometry x="1050" y="15" width="110" height="80" as="geometry" />
        </mxCell>
        <mxCell id="z9AHaRD5B-sYxP1kEGOL-8" value="S / R" style="text;html=1;align=center;verticalAlign=middle;resizable=0;points=[];autosize=1;strokeColor=none;fillColor=none;fontSize=18;" vertex="1" parent="1">
          <mxGeometry x="650" y="16" width="60" height="30" as="geometry" />
        </mxCell>
        <mxCell id="z9AHaRD5B-sYxP1kEGOL-9" value="" style="endArrow=classic;html=1;rounded=0;fontSize=16;" edge="1" parent="1">
          <mxGeometry width="50" height="50" relative="1" as="geometry">
            <mxPoint x="370" y="70" as="sourcePoint" />
            <mxPoint x="670" y="120" as="targetPoint" />
          </mxGeometry>
        </mxCell>
        <mxCell id="z9AHaRD5B-sYxP1kEGOL-10" value="" style="endArrow=none;html=1;rounded=0;fontSize=16;dashed=1;" edge="1" parent="1">
          <mxGeometry width="50" height="50" relative="1" as="geometry">
            <mxPoint x="370" y="67" as="sourcePoint" />
            <mxPoint x="680" y="67" as="targetPoint" />
          </mxGeometry>
        </mxCell>
        <mxCell id="z9AHaRD5B-sYxP1kEGOL-11" value="" style="endArrow=none;dashed=1;html=1;dashPattern=1 3;strokeWidth=2;rounded=0;fontSize=16;" edge="1" parent="1">
          <mxGeometry width="50" height="50" relative="1" as="geometry">
            <mxPoint x="690" y="120" as="sourcePoint" />
            <mxPoint x="690" y="70" as="targetPoint" />
          </mxGeometry>
        </mxCell>
        <mxCell id="z9AHaRD5B-sYxP1kEGOL-12" value="WRQ" style="text;html=1;align=center;verticalAlign=middle;resizable=0;points=[];autosize=1;strokeColor=none;fillColor=none;fontSize=16;rotation=5;" vertex="1" parent="1">
          <mxGeometry x="530" y="80" width="50" height="20" as="geometry" />
        </mxCell>
        <mxCell id="z9AHaRD5B-sYxP1kEGOL-13" value="" style="endArrow=classic;html=1;rounded=0;fontSize=16;" edge="1" parent="1">
          <mxGeometry width="50" height="50" relative="1" as="geometry">
            <mxPoint x="670" y="130" as="sourcePoint" />
            <mxPoint x="370" y="180" as="targetPoint" />
          </mxGeometry>
        </mxCell>
        <mxCell id="z9AHaRD5B-sYxP1kEGOL-14" value="ACK(0)" style="text;html=1;align=center;verticalAlign=middle;resizable=0;points=[];autosize=1;strokeColor=none;fillColor=none;fontSize=16;" vertex="1" parent="1">
          <mxGeometry x="465" y="130" width="70" height="20" as="geometry" />
        </mxCell>
        <mxCell id="z9AHaRD5B-sYxP1kEGOL-15" value="" style="endArrow=classic;html=1;rounded=0;fontSize=16;" edge="1" parent="1">
          <mxGeometry width="50" height="50" relative="1" as="geometry">
            <mxPoint x="370" y="190" as="sourcePoint" />
            <mxPoint x="670" y="230" as="targetPoint" />
          </mxGeometry>
        </mxCell>
        <mxCell id="z9AHaRD5B-sYxP1kEGOL-16" value="DAT(1)" style="text;html=1;align=center;verticalAlign=middle;resizable=0;points=[];autosize=1;strokeColor=none;fillColor=none;fontSize=16;" vertex="1" parent="1">
          <mxGeometry x="505" y="190" width="70" height="20" as="geometry" />
        </mxCell>
        <mxCell id="z9AHaRD5B-sYxP1kEGOL-17" value="512B" style="text;html=1;align=center;verticalAlign=middle;resizable=0;points=[];autosize=1;strokeColor=none;fillColor=none;fontSize=16;" vertex="1" parent="1">
          <mxGeometry x="695" y="220" width="50" height="20" as="geometry" />
        </mxCell>
        <mxCell id="z9AHaRD5B-sYxP1kEGOL-23" value="" style="endArrow=classic;html=1;rounded=0;fontSize=16;" edge="1" parent="1">
          <mxGeometry width="50" height="50" relative="1" as="geometry">
            <mxPoint x="780" y="340" as="sourcePoint" />
            <mxPoint x="1080" y="380" as="targetPoint" />
          </mxGeometry>
        </mxCell>
        <mxCell id="z9AHaRD5B-sYxP1kEGOL-24" value="ACK(1)" style="text;html=1;align=center;verticalAlign=middle;resizable=0;points=[];autosize=1;strokeColor=none;fillColor=none;fontSize=16;" vertex="1" parent="1">
          <mxGeometry x="915" y="340" width="70" height="20" as="geometry" />
        </mxCell>
        <mxCell id="z9AHaRD5B-sYxP1kEGOL-27" value="" style="endArrow=classic;html=1;rounded=0;fontSize=16;" edge="1" parent="1">
          <mxGeometry width="50" height="50" relative="1" as="geometry">
            <mxPoint x="1100" y="470" as="sourcePoint" />
            <mxPoint x="800" y="520" as="targetPoint" />
          </mxGeometry>
        </mxCell>
        <mxCell id="z9AHaRD5B-sYxP1kEGOL-28" value="DAT(2)" style="text;html=1;align=center;verticalAlign=middle;resizable=0;points=[];autosize=1;strokeColor=none;fillColor=none;fontSize=16;" vertex="1" parent="1">
          <mxGeometry x="895" y="470" width="70" height="20" as="geometry" />
        </mxCell>
        <mxCell id="z9AHaRD5B-sYxP1kEGOL-48" value="X = 1" style="text;html=1;align=center;verticalAlign=middle;resizable=0;points=[];autosize=1;strokeColor=none;fillColor=none;fontSize=16;" vertex="1" parent="1">
          <mxGeometry x="935" y="150" width="50" height="20" as="geometry" />
        </mxCell>
        <mxCell id="z9AHaRD5B-sYxP1kEGOL-49" value="" style="endArrow=classic;html=1;rounded=0;fontSize=16;" edge="1" parent="1">
          <mxGeometry width="50" height="50" relative="1" as="geometry">
            <mxPoint x="680" y="240" as="sourcePoint" />
            <mxPoint x="370" y="370" as="targetPoint" />
            <Array as="points">
              <mxPoint x="490" y="280" />
              <mxPoint x="490" y="360" />
            </Array>
          </mxGeometry>
        </mxCell>
        <mxCell id="z9AHaRD5B-sYxP1kEGOL-50" value="ACK(1)" style="text;html=1;align=center;verticalAlign=middle;resizable=0;points=[];autosize=1;strokeColor=none;fillColor=none;fontSize=16;" vertex="1" parent="1">
          <mxGeometry x="475" y="240" width="70" height="20" as="geometry" />
        </mxCell>
        <mxCell id="6M8ZeYp0BXD6hT-96wOn-1" value="" style="endArrow=none;dashed=1;html=1;dashPattern=1 3;strokeWidth=2;rounded=0;fontSize=16;" edge="1" parent="1">
          <mxGeometry width="50" height="50" relative="1" as="geometry">
            <mxPoint x="350" y="305" as="sourcePoint" />
            <mxPoint x="350" y="195" as="targetPoint" />
          </mxGeometry>
        </mxCell>
        <mxCell id="6M8ZeYp0BXD6hT-96wOn-4" value="" style="endArrow=classic;html=1;rounded=0;fontSize=16;" edge="1" parent="1">
          <mxGeometry width="50" height="50" relative="1" as="geometry">
            <mxPoint x="360" y="310" as="sourcePoint" />
            <mxPoint x="680" y="350" as="targetPoint" />
          </mxGeometry>
        </mxCell>
        <mxCell id="6M8ZeYp0BXD6hT-96wOn-5" value="DAT(1)" style="text;html=1;align=center;verticalAlign=middle;resizable=0;points=[];autosize=1;strokeColor=none;fillColor=none;fontSize=16;" vertex="1" parent="1">
          <mxGeometry x="495" y="310" width="70" height="20" as="geometry" />
        </mxCell>
        <mxCell id="6M8ZeYp0BXD6hT-96wOn-6" value="" style="endArrow=classic;html=1;rounded=0;fontSize=16;" edge="1" parent="1">
          <mxGeometry width="50" height="50" relative="1" as="geometry">
            <mxPoint x="360" y="380" as="sourcePoint" />
            <mxPoint x="680" y="420" as="targetPoint" />
          </mxGeometry>
        </mxCell>
        <mxCell id="6M8ZeYp0BXD6hT-96wOn-7" value="DAT(2)" style="text;html=1;align=center;verticalAlign=middle;resizable=0;points=[];autosize=1;strokeColor=none;fillColor=none;fontSize=16;" vertex="1" parent="1">
          <mxGeometry x="495" y="380" width="70" height="20" as="geometry" />
        </mxCell>
        <mxCell id="6M8ZeYp0BXD6hT-96wOn-10" value="" style="endArrow=classic;html=1;rounded=0;fontSize=16;" edge="1" parent="1">
          <mxGeometry width="50" height="50" relative="1" as="geometry">
            <mxPoint x="680" y="364" as="sourcePoint" />
            <mxPoint x="370" y="420" as="targetPoint" />
          </mxGeometry>
        </mxCell>
        <mxCell id="6M8ZeYp0BXD6hT-96wOn-11" value="ACK(1)" style="text;html=1;align=center;verticalAlign=middle;resizable=0;points=[];autosize=1;strokeColor=none;fillColor=none;fontSize=16;" vertex="1" parent="1">
          <mxGeometry x="380" y="394" width="70" height="20" as="geometry" />
        </mxCell>
        <mxCell id="6M8ZeYp0BXD6hT-96wOn-12" value="" style="endArrow=classic;html=1;rounded=0;fontSize=16;" edge="1" parent="1">
          <mxGeometry width="50" height="50" relative="1" as="geometry">
            <mxPoint x="680" y="430" as="sourcePoint" />
            <mxPoint x="370" y="500" as="targetPoint" />
          </mxGeometry>
        </mxCell>
        <mxCell id="6M8ZeYp0BXD6hT-96wOn-13" value="ACK(2)" style="text;html=1;align=center;verticalAlign=middle;resizable=0;points=[];autosize=1;strokeColor=none;fillColor=none;fontSize=16;" vertex="1" parent="1">
          <mxGeometry x="395" y="460" width="70" height="20" as="geometry" />
        </mxCell>
        <mxCell id="6M8ZeYp0BXD6hT-96wOn-18" value="" style="endArrow=classic;html=1;rounded=0;fontSize=16;" edge="1" parent="1">
          <mxGeometry width="50" height="50" relative="1" as="geometry">
            <mxPoint x="363" y="430" as="sourcePoint" />
            <mxPoint x="683" y="470" as="targetPoint" />
          </mxGeometry>
        </mxCell>
        <mxCell id="6M8ZeYp0BXD6hT-96wOn-19" value="DAT(2)" style="text;html=1;align=center;verticalAlign=middle;resizable=0;points=[];autosize=1;strokeColor=none;fillColor=none;fontSize=16;" vertex="1" parent="1">
          <mxGeometry x="498" y="430" width="70" height="20" as="geometry" />
        </mxCell>
        <mxCell id="6M8ZeYp0BXD6hT-96wOn-21" value="" style="endArrow=classic;html=1;rounded=0;fontSize=16;" edge="1" parent="1">
          <mxGeometry width="50" height="50" relative="1" as="geometry">
            <mxPoint x="370" y="510" as="sourcePoint" />
            <mxPoint x="670" y="550" as="targetPoint" />
          </mxGeometry>
        </mxCell>
        <mxCell id="6M8ZeYp0BXD6hT-96wOn-22" value="DAT(3)" style="text;html=1;align=center;verticalAlign=middle;resizable=0;points=[];autosize=1;strokeColor=none;fillColor=none;fontSize=16;" vertex="1" parent="1">
          <mxGeometry x="475" y="504" width="70" height="20" as="geometry" />
        </mxCell>
        <mxCell id="6M8ZeYp0BXD6hT-96wOn-23" value="" style="endArrow=classic;html=1;rounded=0;fontSize=16;" edge="1" parent="1">
          <mxGeometry width="50" height="50" relative="1" as="geometry">
            <mxPoint x="683" y="480" as="sourcePoint" />
            <mxPoint x="370" y="580" as="targetPoint" />
          </mxGeometry>
        </mxCell>
        <mxCell id="6M8ZeYp0BXD6hT-96wOn-24" value="ACK(2)" style="text;html=1;align=center;verticalAlign=middle;resizable=0;points=[];autosize=1;strokeColor=none;fillColor=none;fontSize=16;" vertex="1" parent="1">
          <mxGeometry x="380" y="540" width="70" height="20" as="geometry" />
        </mxCell>
        <mxCell id="6M8ZeYp0BXD6hT-96wOn-25" value="" style="endArrow=classic;html=1;rounded=0;fontSize=16;" edge="1" parent="1">
          <mxGeometry width="50" height="50" relative="1" as="geometry">
            <mxPoint x="370" y="590" as="sourcePoint" />
            <mxPoint x="670" y="630" as="targetPoint" />
          </mxGeometry>
        </mxCell>
        <mxCell id="6M8ZeYp0BXD6hT-96wOn-26" value="DAT(3)" style="text;html=1;align=center;verticalAlign=middle;resizable=0;points=[];autosize=1;strokeColor=none;fillColor=none;fontSize=16;" vertex="1" parent="1">
          <mxGeometry x="465" y="580" width="70" height="20" as="geometry" />
        </mxCell>
        <mxCell id="6M8ZeYp0BXD6hT-96wOn-28" value="Este DAT(2) nunca deveria ter &lt;br&gt;sido re-enviado" style="text;html=1;align=left;verticalAlign=middle;resizable=0;points=[];autosize=1;strokeColor=none;fillColor=none;fontSize=16;" vertex="1" parent="1">
          <mxGeometry x="121" y="430" width="230" height="40" as="geometry" />
        </mxCell>
      </root>
    </mxGraphModel>
  </diagram>
</mxfile>
